<?xml version="1.0" encoding="UTF-8" standalone="no"?>
<!DOCTYPE svg PUBLIC "-//W3C//DTD SVG 1.1//EN" "http://www.w3.org/Graphics/SVG/1.1/DTD/svg11.dtd">
<svg width="100%" height="100%" viewBox="0 0 512 512" version="1.1" xmlns="http://www.w3.org/2000/svg" xmlns:xlink="http://www.w3.org/1999/xlink" xml:space="preserve" xmlns:serif="http://www.serif.com/" style="fill-rule:evenodd;clip-rule:evenodd;stroke-linejoin:round;stroke-miterlimit:2;">
    <g>
        <path d="M237.857,356.662C247.118,347.4 247.118,332.33 237.855,323.066L198.087,283.325C193.614,278.853 187.655,276.39 181.307,276.39C174.958,276.39 168.998,278.853 164.524,283.327C155.262,292.589 155.262,307.659 164.524,316.921L204.263,356.662C208.894,361.293 214.977,363.608 221.06,363.608C227.143,363.608 233.226,361.293 237.857,356.662ZM175.13,306.316C173.489,304.675 172.586,302.476 172.586,300.125C172.586,297.773 173.489,295.574 175.13,293.933C176.771,292.292 178.964,291.389 181.307,291.389C183.649,291.389 185.843,292.292 187.483,293.933C187.483,293.933 187.484,293.934 187.485,293.935L227.251,333.674C230.665,337.088 230.664,342.643 227.251,346.057C223.837,349.471 218.283,349.47 214.869,346.057L175.13,306.316Z" style="fill:white;fill-rule:nonzero;"/>
        <path d="M186.012,374.91L146.246,335.171C141.773,330.697 135.813,328.233 129.464,328.233C123.115,328.233 117.155,330.697 112.681,335.171C103.42,344.433 103.42,359.503 112.681,368.765L152.42,408.506C156.893,412.98 162.859,415.443 169.217,415.443C175.575,415.443 181.54,412.979 186.014,408.506C195.275,399.244 195.275,384.174 186.012,374.91ZM175.408,397.9C173.768,399.541 171.569,400.444 169.218,400.444C166.866,400.444 164.668,399.541 163.027,397.9L123.288,358.159C119.874,354.745 119.875,349.19 123.288,345.776C124.991,344.073 127.228,343.222 129.464,343.222C131.701,343.222 133.938,344.073 135.641,345.776C135.641,345.776 135.642,345.777 135.642,345.778L175.408,385.517C178.822,388.932 178.821,394.486 175.408,397.9Z" style="fill:white;fill-rule:nonzero;"/>
        <path d="M170.762,438.448C166.62,438.448 163.277,441.806 163.277,445.948C163.277,450.09 166.649,453.448 170.791,453.448C174.933,453.448 178.291,450.09 178.291,445.948C178.291,441.806 174.933,438.448 170.791,438.448L170.762,438.448Z" style="fill:white;fill-rule:nonzero;"/>
        <path d="M203.529,426.288C199.387,426.288 196.044,429.646 196.044,433.788C196.044,437.93 199.416,441.288 203.558,441.288C207.7,441.288 211.058,437.93 211.058,433.788C211.058,429.646 207.7,426.288 203.558,426.288L203.529,426.288Z" style="fill:white;fill-rule:nonzero;"/>
        <path d="M506.949,8.162C505.207,5.959 502.657,4.887 499.34,4.932L475.78,4.932C470.73,4.932 466.749,6.537 463.219,10.021L461.111,12.129L451.178,2.196C448.248,-0.733 443.501,-0.733 440.571,2.196C437.642,5.125 437.642,9.873 440.571,12.802L450.506,22.737L434.783,38.467L424.845,28.529C421.915,25.6 417.168,25.6 414.238,28.529C411.309,31.458 411.309,36.206 414.238,39.135L424.179,49.076L408.465,64.796L398.509,54.858C395.576,51.931 390.828,51.936 387.902,54.868C384.976,57.799 384.98,62.548 387.912,65.474L397.861,75.405L390.74,82.529L272.803,200.471C267.023,185.155 263.847,162.361 276.583,127.775C279.388,120.137 282.288,112.238 277.179,107.002C272.185,101.884 264.774,104.403 257.601,106.838C217.098,120.638 199.437,136.565 185.381,156.233C182.973,159.603 183.752,164.287 187.122,166.695C190.492,169.102 195.175,168.323 197.584,164.954C210.311,147.146 225.599,133.587 262.432,121.038C262.682,120.953 262.923,120.872 263.157,120.794C262.962,121.348 262.746,121.948 262.507,122.598C249.809,157.081 249.411,185.633 261.355,211.92L221.757,251.519C219.227,254.018 217.828,257.358 217.817,260.924C217.806,264.508 219.194,267.875 221.722,270.403L250.75,299.46C253.353,302.063 256.772,303.364 260.19,303.364C263.61,303.364 267.028,302.063 269.632,299.46L300.023,269.068C303.215,277.27 303.929,287.222 302.274,299.664C300.617,312.187 301.407,324.924 318.261,333.249C323.379,335.782 330.303,336.195 337.635,336.632C341.602,336.869 348.595,337.286 351.413,338.371C350.836,339.979 348.828,343.865 341.849,351.304C330.176,363.765 317.358,367.997 293.044,372.769C264.308,378.404 254.667,395.8 248.531,413.755C245.235,423.385 240.116,437.512 234.439,450.139C223.357,474.896 203.564,491.572 180.136,495.89C176.165,496.622 172.187,496.984 168.217,496.984C148.864,496.983 129.776,488.375 113.452,472.05L45.708,404.304C24.929,383.525 15.874,361.598 18.796,339.133C22.477,310.832 44.586,288.691 62.398,278.332C72.85,272.258 83.706,270.079 95.198,267.772C109.158,264.97 123.592,262.072 137.09,251.856C154.543,238.597 166.072,218.155 176.243,200.121C177.053,198.685 177.852,197.267 178.644,195.872C180.689,192.271 179.427,187.693 175.825,185.648C172.223,183.603 167.645,184.865 165.601,188.467C164.802,189.874 163.995,191.305 163.178,192.753C153.721,209.522 143.002,228.529 128.027,239.905C117.276,248.042 105.118,250.483 92.246,253.067C80.062,255.513 67.463,258.043 54.86,265.366C33.106,278.018 8.301,303.533 3.922,337.2C1.479,355.984 4.905,384.715 35.102,414.911L102.846,482.657C122.063,501.876 144.791,512 168.084,512C172.991,512 177.925,511.55 182.854,510.642C211.209,505.416 235.001,485.598 248.124,456.279C254.032,443.139 259.324,428.543 262.723,418.61C268.433,401.904 275.697,391.456 295.932,387.488C322.974,382.181 338.381,376.947 352.792,361.563C361.292,352.503 369.476,341.968 365.72,332.535C361.948,323.058 350.042,322.348 338.528,321.661C333.528,321.363 327.306,320.991 324.907,319.805C317.236,316.015 315.711,312.449 317.143,301.639C319.497,283.946 317.58,269.531 311.304,257.789L436.456,132.634L464.79,132.634C469.318,132.634 477.523,132.516 480.308,122.013L488.896,89.642C489.958,85.638 487.574,81.532 483.57,80.47C479.567,79.407 475.46,81.793 474.399,85.795L465.953,117.628C465.517,117.634 465.046,117.632 464.639,117.634L436.456,117.634L406.652,87.83L439.937,54.531C439.99,54.481 440.046,54.437 440.098,54.386C440.15,54.334 440.195,54.277 440.245,54.223L466.16,28.297C466.25,28.215 466.344,28.14 466.431,28.053C466.519,27.965 466.596,27.871 466.678,27.779L473.793,20.661C474.361,20.1 474.533,19.931 475.782,19.931L491.84,19.931L483.132,52.772C482.07,56.776 484.455,60.881 488.458,61.943C492.463,63.003 496.568,60.62 497.629,56.616L508.149,16.947C508.614,15.179 509.588,11.499 506.949,8.162ZM260.19,287.689L233.507,260.979L251.743,242.743L278.439,269.44L260.19,287.689ZM289.045,258.834L262.349,232.137L280.612,213.873L307.308,240.57L289.045,258.834ZM317.914,229.964L291.218,203.267L309.469,185.016L336.175,211.702L317.914,229.964ZM346.782,201.096L320.075,174.409L338.336,156.147L365.032,182.844L346.782,201.096ZM375.638,172.239L348.942,145.542L367.191,127.293L393.887,153.99L375.638,172.239ZM422.742,125.133L404.493,143.383L377.797,116.686L396.046,98.437L422.742,125.133Z" style="fill:white;fill-rule:nonzero;"/>
        <path d="M442.39,73.33C438.248,73.33 434.919,76.688 434.919,80.83C434.919,84.972 438.305,88.33 442.447,88.33C446.589,88.33 449.947,84.972 449.947,80.83C449.947,76.688 446.59,73.33 442.447,73.33L442.39,73.33Z" style="fill:white;fill-rule:nonzero;"/>
        <path d="M459.057,51.985L459,51.985C454.858,51.985 451.529,55.343 451.529,59.485C451.529,63.627 454.915,66.985 459.057,66.985C463.199,66.985 466.557,63.627 466.557,59.485C466.557,55.343 463.199,51.985 459.057,51.985Z" style="fill:white;fill-rule:nonzero;"/>
    </g>
</svg>
