<?xml version="1.0" standalone="no"?>
<!DOCTYPE svg PUBLIC "-//W3C//DTD SVG 20010904//EN"
 "http://www.w3.org/TR/2001/REC-SVG-20010904/DTD/svg10.dtd">
<svg version="1.0" xmlns="http://www.w3.org/2000/svg"
 width="1280.000000pt" height="693.000000pt" viewBox="0 0 1280.000000 693.000000"
 preserveAspectRatio="xMidYMid meet">
<metadata>
Created by potrace 1.15, written by Peter Selinger 2001-2017
</metadata>
<g transform="translate(0.000000,693.000000) scale(0.100000,-0.100000)"
fill="#FFFFFF" stroke="none">
<path d="M12169 6907 c-45 -30 -58 -67 -35 -101 11 -18 25 -26 45 -26 16 0 34
-6 40 -14 12 -15 -22 -20 -209 -31 l-95 -6 38 33 c43 39 49 76 15 108 -40 37
-142 19 -168 -29 -26 -49 1 -101 53 -101 14 0 28 -4 31 -9 5 -7 -210 -32 -274
-31 -25 1 -25 1 9 29 62 51 33 121 -51 121 -77 0 -131 -53 -112 -108 7 -20 17
-28 39 -30 60 -7 44 -20 -32 -26 -43 -4 -103 -9 -133 -12 l-55 -6 38 36 c43
41 47 67 12 101 -29 30 -75 33 -124 7 -70 -35 -72 -123 -3 -130 68 -7 26 -19
-105 -29 -76 -7 -140 -9 -143 -7 -2 3 10 16 28 30 72 57 8 140 -88 114 -92
-25 -116 -140 -29 -140 16 0 29 -4 29 -8 0 -5 -56 -13 -125 -18 -69 -5 -125
-6 -125 -3 0 4 11 14 25 23 32 21 34 67 3 96 -33 31 -108 23 -148 -15 -36 -34
-38 -70 -8 -102 l21 -23 -49 0 c-42 0 -55 -5 -76 -27 -23 -25 -26 -39 -32
-130 -3 -56 -9 -108 -12 -117 -3 -8 -22 -20 -42 -27 -21 -6 -41 -15 -47 -19
-5 -4 -145 -63 -310 -130 -165 -67 -507 -207 -760 -310 -253 -103 -680 -278
-950 -388 -269 -110 -798 -326 -1175 -480 -1756 -717 -1772 -724 -1783 -713
-6 6 -18 11 -26 11 -31 0 -147 62 -184 98 -138 133 -135 352 9 575 83 129 148
175 352 257 115 45 200 102 218 145 10 25 13 67 11 152 -3 151 -18 186 -95
224 -193 96 -500 61 -875 -100 -319 -137 -437 -218 -792 -546 -385 -355 -516
-441 -753 -495 -303 -70 -436 -80 -1092 -84 -603 -4 -761 -19 -975 -88 -321
-103 -704 -386 -876 -648 -82 -124 -152 -326 -195 -563 -25 -134 -25 -445 -1
-592 25 -149 87 -386 136 -522 84 -234 156 -398 365 -831 75 -156 165 -345
199 -420 251 -546 602 -805 1127 -829 132 -6 316 8 438 33 345 71 797 353
1080 674 41 47 119 153 174 235 122 183 187 266 293 370 197 193 450 327 727
385 143 30 257 40 451 40 215 0 335 12 481 50 258 65 449 181 557 334 52 73
89 172 89 235 -1 86 -70 169 -166 197 -69 20 -94 16 -220 -31 -230 -86 -452
-43 -612 117 -140 140 -187 325 -119 470 46 99 85 133 246 210 304 145 353
175 383 234 10 20 59 46 228 121 118 52 233 103 255 113 22 10 191 86 375 168
184 82 670 299 1080 482 1346 601 1858 829 2415 1077 303 134 565 251 583 260
40 18 127 12 264 -17 103 -22 178 -53 209 -86 12 -13 27 -24 32 -24 5 0 204
135 442 300 238 165 443 300 454 300 12 0 65 -39 122 -89 136 -119 185 -146
269 -146 73 0 119 16 222 76 84 49 130 94 165 162 23 44 28 64 28 132 0 106
-31 170 -132 276 -102 106 -125 115 -288 103 -69 -5 -125 -7 -125 -4 0 4 18
25 40 47 36 38 39 44 29 71 -19 54 -92 68 -150 29z"/>
</g>
</svg>
