<?xml version="1.0" encoding="UTF-8" standalone="no"?>
<!-- Created with Inkscape (http://www.inkscape.org/) -->
<svg xmlns:dc="http://purl.org/dc/elements/1.1/" xmlns:cc="http://creativecommons.org/ns#" xmlns:rdf="http://www.w3.org/1999/02/22-rdf-syntax-ns#" xmlns:svg="http://www.w3.org/2000/svg" xmlns="http://www.w3.org/2000/svg" xmlns:sodipodi="http://sodipodi.sourceforge.net/DTD/sodipodi-0.dtd" xmlns:inkscape="http://www.inkscape.org/namespaces/inkscape" width="744.09448" height="255.1181" viewBox="0 0 744.09449 255.11796" id="svg6368" version="1.1" inkscape:version="0.91 r13725" sodipodi:docname="logo-python-canarias-color.svg" inkscape:export-filename="/home/jileon/Dropbox/Proyectos/pyBirrasGC/logo-python-canarias-color.png" inkscape:export-xdpi="62.794445" inkscape:export-ydpi="62.794445">
  <defs id="defs6370"/>
  <sodipodi:namedview id="base" pagecolor="#ffffff" bordercolor="#666666" borderopacity="1.0" inkscape:pageopacity="0.0" inkscape:pageshadow="2" inkscape:zoom="0.5" inkscape:cx="378.63754" inkscape:cy="-8.25431" inkscape:document-units="px" inkscape:current-layer="layer1" showgrid="false" units="px" inkscape:window-width="1920" inkscape:window-height="1146" inkscape:window-x="0" inkscape:window-y="0" inkscape:window-maximized="1" showguides="true" inkscape:guide-bbox="true">
    <sodipodi:guide position="28.991378,63.639575" orientation="1,0" id="guide5982"/>
    <sodipodi:guide position="216.37468,-46.669021" orientation="1,0" id="guide5984"/>
  </sodipodi:namedview>
  <metadata id="metadata6373">
    <rdf:RDF>
      <cc:Work rdf:about="">
        <dc:format>image/svg+xml</dc:format>
        <dc:type rdf:resource="http://purl.org/dc/dcmitype/StillImage"/>
        <dc:title/>
      </cc:Work>
    </rdf:RDF>
  </metadata>
  <g inkscape:label="Capa 1" inkscape:groupmode="layer" id="layer1" transform="translate(0,-797.24438)">
    <rect style="color:#000000;clip-rule:nonzero;display:inline;overflow:visible;visibility:visible;opacity:1;isolation:auto;mix-blend-mode:normal;color-interpolation:sRGB;color-interpolation-filters:linearRGB;solid-color:#000000;solid-opacity:1;fill:none;fill-opacity:1;fill-rule:evenodd;stroke:none;stroke-width:8;stroke-linecap:round;stroke-linejoin:round;stroke-miterlimit:4;stroke-dasharray:none;stroke-dashoffset:0;stroke-opacity:1;color-rendering:auto;image-rendering:auto;shape-rendering:auto;text-rendering:auto;enable-background:accumulate" id="rect20075" width="744" height="255" x="0" y="797.36243" inkscape:export-xdpi="21.661715" inkscape:export-ydpi="21.661715"/>
    <g id="g4556" style="fill:#f5cc00;fill-opacity:1">
      <path d="m 284.44017,912.19021 0,39.17649 -26.53638,0 0,-114.31055 43.65156,0 q 20.33409,0 32.2676,10.36332 11.93352,10.36332 11.93352,27.24297 0,16.87964 -11.93352,27.24296 -11.93351,10.28481 -32.2676,10.28481 l -17.11518,0 z m 0,-20.4126 17.11518,0 q 8.6361,0 13.18968,-4.7106 4.55358,-4.78911 4.55358,-12.24755 0,-7.61547 -4.55358,-12.48309 -4.47507,-4.86762 -13.18968,-4.86762 l -17.11518,0 0,34.30886 z" style="font-style:normal;font-variant:normal;font-weight:normal;font-stretch:normal;font-size:medium;line-height:125%;font-family:Roboto;-inkscape-font-specification:Roboto;letter-spacing:-5.28294897px;word-spacing:0px;fill:#f5cc00;fill-opacity:1;stroke:none;stroke-width:1px;stroke-linecap:butt;stroke-linejoin:miter;stroke-opacity:1" id="path4513" inkscape:connector-curvature="0"/>
      <path d="m 387.89356,913.91743 0.0785,0.62808 0.47106,0 14.05329,-48.12662 28.2636,0 -33.83781,97.58792 q -3.9255,9.4212 -10.12779,15.54498 -6.20229,6.12378 -19.70601,6.12378 -3.45444,0 -5.65272,-0.47106 -2.19828,-0.39255 -6.90888,-1.5702 l 3.21891,-18.92091 q 1.09914,0.23553 1.64871,0.31404 0.54957,0.15702 1.41318,0.15702 6.2808,0 9.18567,-1.88424 2.90487,-1.80573 4.31805,-5.4957 l 2.11977,-5.4957 -29.36274,-85.88993 28.18509,0 12.64011,47.49854 z" style="font-style:normal;font-variant:normal;font-weight:normal;font-stretch:normal;font-size:medium;line-height:125%;font-family:Roboto;-inkscape-font-specification:Roboto;letter-spacing:-5.28294897px;word-spacing:0px;fill:#f5cc00;fill-opacity:1;stroke:none;stroke-width:1px;stroke-linecap:butt;stroke-linejoin:miter;stroke-opacity:1" id="path4515" inkscape:connector-curvature="0"/>
      <path d="m 462.76931,845.2997 0,21.11919 13.42521,0 0,18.37133 -13.42521,0 0,38.94096 q 0,4.55358 1.80573,6.59484 1.88424,1.96275 5.02464,1.96275 2.04126,0 3.21891,-0.15702 1.25616,-0.15702 3.1404,-0.62808 l 1.80573,19.6275 q -4.00401,1.02063 -7.22292,1.41318 -3.21891,0.47106 -7.61547,0.47106 -13.11116,0 -19.94153,-6.98739 -6.75186,-6.98739 -6.75186,-22.13982 l 0,-39.09798 -11.85501,0 0,-18.37133 11.85501,0 0,-21.11919 26.53637,0 z" style="font-style:normal;font-variant:normal;font-weight:normal;font-stretch:normal;font-size:medium;line-height:125%;font-family:Roboto;-inkscape-font-specification:Roboto;letter-spacing:-5.28294897px;word-spacing:0px;fill:#f5cc00;fill-opacity:1;stroke:none;stroke-width:1px;stroke-linecap:butt;stroke-linejoin:miter;stroke-opacity:1" id="path4517" inkscape:connector-curvature="0"/>
      <path d="m 509.617,876.93923 q 3.84699,-5.73123 9.34269,-8.87163 5.57421,-3.21891 12.24756,-3.21891 13.18968,0 20.72664,9.18567 7.53696,9.18566 7.53696,28.49912 l 0,48.83322 -26.53638,0 0,-48.99024 q 0,-9.73524 -2.51232,-13.42521 -2.51232,-3.68997 -7.61547,-3.68997 -4.47507,0 -7.77249,1.33467 -3.29742,1.25616 -5.41719,3.61146 l 0,61.15929 -26.53637,0 0,-122.47559 26.53637,0 0,48.04812 z" style="font-style:normal;font-variant:normal;font-weight:normal;font-stretch:normal;font-size:medium;line-height:125%;font-family:Roboto;-inkscape-font-specification:Roboto;letter-spacing:-5.28294897px;word-spacing:0px;fill:#f5cc00;fill-opacity:1;stroke:none;stroke-width:1px;stroke-linecap:butt;stroke-linejoin:miter;stroke-opacity:1" id="path4519" inkscape:connector-curvature="0"/>
      <path d="m 565.49333,908.10769 q 0,-19.15644 10.83438,-31.16846 10.83438,-12.09054 30.22635,-12.09054 19.47047,0 30.30485,12.09054 10.83438,12.01202 10.83438,31.16846 l 0,1.64871 q 0,19.23495 -10.83438,31.24698 -10.83438,12.01203 -30.14783,12.01203 -19.54899,0 -30.38337,-12.01203 -10.83438,-12.01203 -10.83438,-31.24698 l 0,-1.64871 z m 26.53638,1.64871 q 0,10.67736 3.29742,16.80114 3.37593,6.04527 11.38395,6.04527 7.77248,0 11.14841,-6.12378 3.37593,-6.12378 3.37593,-16.72263 l 0,-1.64871 q 0,-10.36332 -3.37593,-16.56561 -3.37593,-6.2808 -11.30543,-6.2808 -7.851,0 -11.22693,6.2808 -3.29742,6.2808 -3.29742,16.56561 l 0,1.64871 z" style="font-style:normal;font-variant:normal;font-weight:normal;font-stretch:normal;font-size:medium;line-height:125%;font-family:Roboto;-inkscape-font-specification:Roboto;letter-spacing:-5.28294897px;word-spacing:0px;fill:#f5cc00;fill-opacity:1;stroke:none;stroke-width:1px;stroke-linecap:butt;stroke-linejoin:miter;stroke-opacity:1" id="path4521" inkscape:connector-curvature="0"/>
      <path d="m 678.60347,866.41889 1.02063,11.93351 q 4.16103,-6.3593 10.28481,-9.89225 6.12378,-3.61146 13.66074,-3.61146 12.48309,0 19.47048,8.47908 7.0659,8.47907 7.0659,26.92892 l 0,51.11001 -26.53638,0 0,-51.18852 q 0,-8.08653 -2.59083,-11.46246 -2.59083,-3.45444 -7.53696,-3.45444 -4.23954,0 -7.61547,1.49169 -3.37593,1.49169 -5.65272,4.23954 l 0,60.37419 -26.45787,0 0,-84.94781 24.88767,0 z" style="font-style:normal;font-variant:normal;font-weight:normal;font-stretch:normal;font-size:medium;line-height:125%;font-family:Roboto;-inkscape-font-specification:Roboto;letter-spacing:-5.28294897px;word-spacing:0px;fill:#f5cc00;fill-opacity:1;stroke:none;stroke-width:1px;stroke-linecap:butt;stroke-linejoin:miter;stroke-opacity:1" id="path4523" inkscape:connector-curvature="0"/>
    </g>
    <g id="g4564" style="fill:#4884ce;fill-opacity:1">
      <path d="m 420.80478,986.0786 c 0.0617,15.7528 13.27933,28.4651 29.51683,28.4015 6.94739,-0.027 13.32011,-2.395 18.23305,-6.211 0.88608,-0.6498 1.04196,-2.1045 0.23128,-2.8284 -0.56928,-0.9672 -1.86245,-1.1237 -2.82933,-0.4737 -4.18682,3.5709 -9.67251,5.5313 -15.6505,5.5547 -14.13712,0.055 -25.49013,-10.96778 -25.54294,-24.45859 -0.0541,-13.81399 11.2123,-24.9256 25.34942,-24.98094 5.97799,-0.0234 11.47949,2.05547 15.85508,5.4313 0.81036,0.64311 2.10258,0.55727 2.74505,-0.41467 0.72421,-0.72989 0.55727,-2.10257 -0.33419,-2.82615 -4.94267,-3.77754 -11.33404,-6.17606 -18.28143,-6.14887 -16.23718,0.14436 -29.35524,12.8789 -29.29232,28.95482 z" style="font-style:normal;font-variant:normal;font-weight:normal;font-stretch:normal;font-size:medium;line-height:125%;font-family:Quicksand;-inkscape-font-specification:Quicksand;letter-spacing:-8.37846279px;word-spacing:0px;fill:#4884ce;fill-opacity:1;stroke:none;stroke-width:1px;stroke-linecap:butt;stroke-linejoin:miter;stroke-opacity:1" id="path4532" inkscape:connector-curvature="0"/>
      <path d="m 507.58519,974.6714 c -1.05019,0.004 -1.93565,0.81542 -1.93122,1.9464 l 0.0228,5.81641 c -3.41125,-4.67216 -8.83576,-7.72075 -14.89452,-7.69704 -10.42109,0.0408 -18.70668,9.04034 -18.66431,19.86533 0.0424,10.8249 8.39817,19.7594 18.81925,19.7186 6.05876,-0.024 11.45893,-3.1955 14.83349,-7.8942 l 0.0231,5.8973 c 0.004,1.0501 0.89622,1.9353 1.9464,1.9311 1.05019,0 1.93533,-0.8961 1.93122,-1.9463 l -0.13977,-35.70638 c -0.004,-1.13097 -0.8962,-1.93533 -1.94639,-1.93122 z m -16.66321,35.7721 c -8.07836,0.032 -14.89169,-6.97 -14.92647,-15.85618 -0.0348,-8.88619 6.72321,-16.02169 14.80157,-16.05332 8.15913,-0.0319 14.89199,7.05077 14.92677,15.93696 0.0348,8.88614 -6.64273,15.94054 -14.80187,15.97254 z" style="font-style:normal;font-variant:normal;font-weight:normal;font-stretch:normal;font-size:medium;line-height:125%;font-family:Quicksand;-inkscape-font-specification:Quicksand;letter-spacing:-8.37846279px;word-spacing:0px;fill:#4884ce;fill-opacity:1;stroke:none;stroke-width:1px;stroke-linecap:butt;stroke-linejoin:miter;stroke-opacity:1" id="path4534" inkscape:connector-curvature="0"/>
      <path d="m 545.59262,1012.1684 c 0.004,1.1309 0.8962,1.9353 1.94639,1.9312 1.05019,0 1.93565,-0.8155 1.93122,-1.9464 l -0.0841,-21.48846 c -0.0345,-8.80541 -7.25266,-16.04778 -16.13885,-16.013 -4.9278,0.0193 -9.36204,2.29862 -12.25665,5.78369 l -0.0149,-3.79682 c -0.004,-1.05019 -0.81542,-1.93564 -1.86561,-1.93153 -1.13097,0.004 -1.93532,0.8962 -1.93121,1.94639 l 0.0528,13.49085 0.003,0.64627 0.0841,21.48841 0.002,0.4847 c 0,0 0.0811,0.081 0.0814,0.1612 3.1e-4,0.081 6.3e-4,0.1616 0.0817,0.2421 0.24426,0.4838 0.73054,0.8857 1.29665,1.0451 l 0.48471,0 c 0.56548,0 1.13001,-0.2468 1.45125,-0.7327 0.2414,-0.2433 0.32093,-0.5668 0.40044,-0.8902 l -10e-4,-0.3231 -0.0841,-21.48848 c 0.13532,-6.70566 5.52632,-12.22012 12.23134,-12.24637 6.78582,-0.0266 12.21982,5.44553 12.24607,12.15056 l 0.0841,21.48849 z" style="font-style:normal;font-variant:normal;font-weight:normal;font-stretch:normal;font-size:medium;line-height:125%;font-family:Quicksand;-inkscape-font-specification:Quicksand;letter-spacing:-8.37846279px;word-spacing:0px;fill:#4884ce;fill-opacity:1;stroke:none;stroke-width:1px;stroke-linecap:butt;stroke-linejoin:miter;stroke-opacity:1" id="path4536" inkscape:connector-curvature="0"/>
      <path d="m 589.59888,974.35038 c -1.05018,0.004 -1.93564,0.81542 -1.93122,1.94639 l 0.0228,5.81642 c -3.41125,-4.67217 -8.83576,-7.72076 -14.89452,-7.69704 -10.42108,0.0408 -18.70668,9.04033 -18.66431,19.86533 0.0424,10.82492 8.39817,19.75942 18.81925,19.71862 6.05876,-0.024 11.45893,-3.1955 14.83349,-7.8942 l 0.0231,5.8972 c 0.004,1.0502 0.89621,1.9353 1.94639,1.9312 1.05019,0 1.93533,-0.8962 1.93122,-1.9463 l -0.13977,-35.70641 c -0.004,-1.13097 -0.8962,-1.93532 -1.94639,-1.93121 z m -16.66321,35.77202 c -8.07836,0.032 -14.89169,-6.9699 -14.92647,-15.8561 -0.0348,-8.88619 6.72321,-16.0217 14.80157,-16.05332 8.15914,-0.0319 14.89199,7.05076 14.92677,15.93695 0.0348,8.88617 -6.64273,15.94057 -14.80187,15.97247 z" style="font-style:normal;font-variant:normal;font-weight:normal;font-stretch:normal;font-size:medium;line-height:125%;font-family:Quicksand;-inkscape-font-specification:Quicksand;letter-spacing:-8.37846279px;word-spacing:0px;fill:#4884ce;fill-opacity:1;stroke:none;stroke-width:1px;stroke-linecap:butt;stroke-linejoin:miter;stroke-opacity:1" id="path4538" inkscape:connector-curvature="0"/>
      <path d="m 600.12098,1011.9549 c 0.004,1.1309 0.8962,1.9353 2.02718,1.9309 0.9694,0 1.85486,-0.8152 1.85043,-1.946 l -0.068,-17.36855 c -6.3e-4,-0.16155 -0.001,-0.32312 0.15903,-0.64689 0.55916,-1.61788 2.07824,-5.66307 4.73018,-9.22798 2.73273,-3.56523 6.27582,-6.48734 11.44597,-6.50758 1.05018,-0.004 1.93532,-0.89621 1.93121,-1.9464 -0.004,-1.13097 -0.89621,-1.93532 -1.94639,-1.93121 -7.59365,0.0297 -12.82498,5.05885 -15.79563,9.75599 -0.24109,0.32409 -0.40139,0.64786 -0.56169,0.97162 l -0.0341,-8.72462 c -0.004,-1.13097 -0.89621,-1.93532 -1.86561,-1.93153 -1.13097,0.004 -2.01642,0.81574 -2.012,1.94671 l 0.13945,35.62554 z" style="font-style:normal;font-variant:normal;font-weight:normal;font-stretch:normal;font-size:medium;line-height:125%;font-family:Quicksand;-inkscape-font-specification:Quicksand;letter-spacing:-8.37846279px;word-spacing:0px;fill:#4884ce;fill-opacity:1;stroke:none;stroke-width:1px;stroke-linecap:butt;stroke-linejoin:miter;stroke-opacity:1" id="path4540" inkscape:connector-curvature="0"/>
      <path d="m 627.32393,1011.8484 c 0.004,1.0502 0.89621,1.9354 1.9464,1.9312 1.13096,0 2.0161,-0.8965 2.01199,-1.9466 l -0.13976,-35.7064 c -0.004,-1.13097 -0.89621,-1.93533 -2.02717,-1.9309 -1.0502,0.004 -1.93565,0.81542 -1.93122,1.94639 l 0.13976,35.70631 z m -0.18308,-46.77365 c 0.004,1.13097 0.89683,2.09689 1.94703,2.09278 1.13096,-0.004 2.01579,-0.97731 2.01136,-2.10828 l -0.007,-1.85801 c -0.004,-1.05019 -0.89622,-1.93533 -2.02718,-1.9309 -1.05019,0.004 -1.93532,0.8962 -1.93121,1.94639 l 0.007,1.85802 z" style="font-style:normal;font-variant:normal;font-weight:normal;font-stretch:normal;font-size:medium;line-height:125%;font-family:Quicksand;-inkscape-font-specification:Quicksand;letter-spacing:-8.37846279px;word-spacing:0px;fill:#4884ce;fill-opacity:1;stroke:none;stroke-width:1px;stroke-linecap:butt;stroke-linejoin:miter;stroke-opacity:1" id="path4542" inkscape:connector-curvature="0"/>
      <path d="m 672.70099,974.02509 c -1.05018,0.004 -1.93564,0.81543 -1.93121,1.9464 l 0.0228,5.81641 c -3.41124,-4.67216 -8.83576,-7.72075 -14.89452,-7.69704 -10.42107,0.0408 -18.70668,9.04034 -18.6643,19.86533 0.0424,10.82491 8.39817,19.75941 18.81924,19.71861 6.05877,-0.024 11.45893,-3.1955 14.8335,-7.8942 l 0.0231,5.8972 c 0.004,1.0502 0.89621,1.9354 1.94639,1.9312 1.0502,0 1.93533,-0.8961 1.93122,-1.9463 l -0.13976,-35.70639 c -0.004,-1.13097 -0.89621,-1.93533 -1.9464,-1.93122 z m -16.66321,35.77201 c -8.07834,0.032 -14.89167,-6.9699 -14.92645,-15.85609 -0.0348,-8.88619 6.7232,-16.02169 14.80155,-16.05331 8.15914,-0.0319 14.89199,7.05076 14.92678,15.93695 0.0348,8.88615 -6.64274,15.94055 -14.80188,15.97245 z" style="font-style:normal;font-variant:normal;font-weight:normal;font-stretch:normal;font-size:medium;line-height:125%;font-family:Quicksand;-inkscape-font-specification:Quicksand;letter-spacing:-8.37846279px;word-spacing:0px;fill:#4884ce;fill-opacity:1;stroke:none;stroke-width:1px;stroke-linecap:butt;stroke-linejoin:miter;stroke-opacity:1" id="path4544" inkscape:connector-curvature="0"/>
      <path d="m 680.70424,1007.9234 c 3.24146,2.5724 8.26174,5.5418 14.64396,5.5976 3.87761,-0.015 7.10452,-1.1588 9.84325,-3.1892 2.65796,-2.03 4.50554,-4.7031 4.49257,-8.0152 -0.013,-3.31218 -1.88299,-6.37466 -4.4747,-8.06099 -2.75265,-1.52414 -5.82685,-2.64309 -9.6259,-3.19371 l -0.16157,6.3e-4 c -3.63746,-0.55126 -6.30712,-1.51023 -8.08909,-2.71502 -1.53964,-1.20574 -2.27112,-2.33387 -2.27744,-3.94954 -0.006,-1.61567 0.87597,-3.23482 2.48658,-4.53367 1.69108,-1.37997 4.27267,-2.27871 7.50402,-2.29135 3.87761,-0.0152 6.79372,1.99302 9.70952,3.92044 0.89083,0.56201 2.10163,0.31492 2.66364,-0.57592 0.562,-0.89083 0.31491,-2.10163 -0.57624,-2.74443 -3.07736,-1.92678 -6.72179,-4.25528 -11.81115,-4.23536 -4.03918,0.0158 -7.34719,1.07897 -9.68359,2.70381 -2.49702,1.86782 -4.2635,4.62142 -4.25117,7.77198 0.012,3.06977 1.79937,5.64789 4.30935,7.09218 2.26827,1.60683 5.42199,2.40233 8.97899,3.03468 l 0.16188,0.0802 c 3.88014,0.6311 6.71136,1.58943 8.41287,2.87528 2.02623,1.68858 2.75834,2.97819 2.8464,4.83599 0.007,1.7772 -1.03627,3.5586 -2.97002,4.8586 -1.77154,1.4611 -4.43361,2.4409 -7.50338,2.4529 -5.00858,0.02 -9.38101,-2.5483 -12.13556,-4.5572 -0.89146,-0.7235 -2.10257,-0.5572 -2.74569,0.2531 -0.6431,0.8104 -0.55821,1.8602 0.25247,2.5842 z" style="font-style:normal;font-variant:normal;font-weight:normal;font-stretch:normal;font-size:medium;line-height:125%;font-family:Quicksand;-inkscape-font-specification:Quicksand;letter-spacing:-8.37846279px;word-spacing:0px;fill:#4884ce;fill-opacity:1;stroke:none;stroke-width:1px;stroke-linecap:butt;stroke-linejoin:miter;stroke-opacity:1" id="path4546" inkscape:connector-curvature="0"/>
    </g>
    <circle style="color:#000000;clip-rule:nonzero;display:inline;overflow:visible;visibility:visible;opacity:1;isolation:auto;mix-blend-mode:normal;color-interpolation:sRGB;color-interpolation-filters:linearRGB;solid-color:#000000;solid-opacity:1;fill:#000000;fill-opacity:1;fill-rule:evenodd;stroke:none;stroke-width:8;stroke-linecap:round;stroke-linejoin:round;stroke-miterlimit:4;stroke-dasharray:none;stroke-dashoffset:0;stroke-opacity:1;color-rendering:auto;image-rendering:auto;shape-rendering:auto;text-rendering:auto;enable-background:accumulate" id="circle17737" cx="123.49812" cy="924.23523" r="112.07596" inkscape:export-xdpi="300.00775" inkscape:export-ydpi="300.00775"/>
    <g id="g5405" transform="matrix(1.6670222,0,0,1.6670222,-1363.6225,-1622.9015)">
      <path inkscape:connector-curvature="0" id="path5407" d="m 891.57935,1582.9057 c 28.03173,0 26.28125,-12.1563 26.28125,-12.1563 l -0.0312,-12.5937 -26.75,0 0,-3.7813 37.375,0 c 0,0 17.9375,2.0343 17.9375,-26.25 0,-28.2843 -15.65625,-27.2812 -15.65625,-27.2812 l -9.34375,0 0,13.125 c 0,0 0.50365,15.6562 -15.40625,15.6562 -15.9099,0 -26.53125,0 -26.53125,0 0,0 -14.90625,-0.241 -14.90625,14.4063 0,14.6472 0,24.2187 0,24.2187 0,0 -2.26318,14.6563 27.03125,14.6563 z m 14.75,-8.4688 c -2.66143,0 -4.8125,-2.1511 -4.8125,-4.8125 0,-2.6614 2.15107,-4.8125 4.8125,-4.8125 2.66143,0 4.8125,2.1511 4.8125,4.8125 0,2.6614 -2.15107,4.8125 -4.8125,4.8125 z" style="color:#000000;display:inline;overflow:visible;visibility:visible;opacity:1;fill:#4884ce;fill-opacity:1;fill-rule:nonzero;stroke:none;stroke-width:1;stroke-linecap:butt;stroke-linejoin:miter;stroke-miterlimit:4;stroke-dasharray:none;stroke-dashoffset:0;stroke-opacity:1;marker:none;marker-start:none;marker-mid:none;marker-end:none"/>
      <path inkscape:connector-curvature="0" style="color:#000000;display:inline;overflow:visible;visibility:visible;opacity:1;fill:#f5cc00;fill-opacity:1;fill-rule:nonzero;stroke:none;stroke-width:1;stroke-linecap:butt;stroke-linejoin:miter;stroke-miterlimit:4;stroke-dasharray:none;stroke-dashoffset:0;stroke-opacity:1;marker:none;marker-start:none;marker-mid:none;marker-end:none" d="m 890.78325,1473.0596 c -28.03174,0 -26.28125,12.1562 -26.28125,12.1562 l 0.006,2.2433 0.0256,10.3505 2.50898,0 24.24102,0 0,3.7812 -37.375,0 c 0,0 -17.9375,-2.0343 -17.9375,26.25 -10e-6,28.2843 15.65625,27.2813 15.65625,27.2813 l 9.34375,0 0,-13.125 c 0,0 -0.50366,-15.6563 15.40625,-15.6563 l 26.53125,0 c 0,0 14.90625,0.241 14.90625,-14.4062 l 0,-24.2188 c 0,0 2.26318,-14.6562 -27.03125,-14.6562 z m -14.75,8.4687 c 2.66143,0 4.8125,2.1511 4.8125,4.8125 0,2.6614 -2.15107,4.8125 -4.8125,4.8125 -2.66143,0 -4.8125,-2.1511 -4.8125,-4.8125 -10e-6,-2.6614 2.15107,-4.8125 4.8125,-4.8125 z" id="path5409" sodipodi:nodetypes="ccccccccscccscscccsssss"/>
      <path style="fill:#4884ce;fill-opacity:1;fill-rule:evenodd;stroke:none;stroke-width:0.39975929px;stroke-linecap:butt;stroke-linejoin:miter;stroke-opacity:1" d="m 850.79561,1497.7858 9.69163,0 0,-8.884 c -4.24644,-0.2408 -9.69856,5.0513 -9.69163,8.884 z" id="path5411" inkscape:connector-curvature="0" sodipodi:nodetypes="cccc"/>
      <path sodipodi:nodetypes="cccc" inkscape:connector-curvature="0" id="path5413" d="m 931.03525,1558.1413 -9.69163,0 0,8.884 c 4.24644,0.2409 9.69856,-5.0513 9.69163,-8.884 z" style="fill:#f5cc00;fill-opacity:1;fill-rule:evenodd;stroke:none;stroke-width:0.39975929px;stroke-linecap:butt;stroke-linejoin:miter;stroke-opacity:1"/>
    </g>
  </g>
</svg>